<svg xmlns="http://www.w3.org/2000/svg" version="1.1" xmlns:xlink="http://www.w3.org/1999/xlink" xmlns:svgjs="http://svgjs.com/svgjs" width="525" height="670" preserveAspectRatio="none" viewBox="0 0 525 670"><g mask="url(&quot;#SvgjsMask3923&quot;)" fill="none"><rect width="525" height="670" x="0" y="0" fill="url(#SvgjsLinearGradient3924)"></rect><use xlink:href="#SvgjsPath3925" x="30" y="30" stroke="rgba(252, 198, 5, 0.33)"></use><use xlink:href="#SvgjsPath3926" x="30" y="90" stroke="rgba(252, 198, 5, 0.33)"></use><use xlink:href="#SvgjsPath3927" x="30" y="150" stroke="rgba(252, 198, 5, 0.33)"></use><use xlink:href="#SvgjsPath3925" x="30" y="210" stroke="rgba(252, 198, 5, 0.33)"></use><use xlink:href="#SvgjsPath3928" x="30" y="270" stroke="rgba(252, 198, 5, 0.33)"></use><use xlink:href="#SvgjsPath3925" x="30" y="330" stroke="rgba(252, 198, 5, 0.33)"></use><use xlink:href="#SvgjsPath3928" x="30" y="390" stroke="rgba(252, 198, 5, 0.33)"></use><use xlink:href="#SvgjsPath3929" x="30" y="450" stroke="rgba(252, 198, 5, 0.33)"></use><use xlink:href="#SvgjsPath3925" x="30" y="510" stroke="rgba(252, 198, 5, 0.33)"></use><use xlink:href="#SvgjsPath3925" x="30" y="570" stroke="rgba(252, 198, 5, 0.33)"></use><use xlink:href="#SvgjsPath3925" x="30" y="630" stroke="rgba(252, 198, 5, 0.33)"></use><use xlink:href="#SvgjsPath3926" x="30" y="690" stroke="rgba(252, 198, 5, 0.33)"></use><use xlink:href="#SvgjsPath3928" x="90" y="30" stroke="rgba(252, 198, 5, 0.33)"></use><use xlink:href="#SvgjsPath3926" x="90" y="90" stroke="rgba(252, 198, 5, 0.33)"></use><use xlink:href="#SvgjsPath3928" x="90" y="150" stroke="rgba(252, 198, 5, 0.33)"></use><use xlink:href="#SvgjsPath3925" x="90" y="210" stroke="rgba(252, 198, 5, 0.33)"></use><use xlink:href="#SvgjsPath3928" x="90" y="270" stroke="rgba(252, 198, 5, 0.33)"></use><use xlink:href="#SvgjsPath3929" x="90" y="330" stroke="rgba(252, 198, 5, 0.33)"></use><use xlink:href="#SvgjsPath3927" x="90" y="390" stroke="rgba(252, 198, 5, 0.33)"></use><use xlink:href="#SvgjsPath3926" x="90" y="450" stroke="rgba(252, 198, 5, 0.33)"></use><use xlink:href="#SvgjsPath3929" x="90" y="510" stroke="rgba(252, 198, 5, 0.33)"></use><use xlink:href="#SvgjsPath3925" x="90" y="570" stroke="rgba(252, 198, 5, 0.33)"></use><use xlink:href="#SvgjsPath3925" x="90" y="630" stroke="rgba(252, 198, 5, 0.33)"></use><use xlink:href="#SvgjsPath3925" x="90" y="690" stroke="rgba(252, 198, 5, 0.33)"></use><use xlink:href="#SvgjsPath3928" x="150" y="30" stroke="rgba(252, 198, 5, 0.33)"></use><use xlink:href="#SvgjsPath3925" x="150" y="90" stroke="rgba(252, 198, 5, 0.33)"></use><use xlink:href="#SvgjsPath3928" x="150" y="150" stroke="rgba(252, 198, 5, 0.33)"></use><use xlink:href="#SvgjsPath3926" x="150" y="210" stroke="rgba(252, 198, 5, 0.33)"></use><use xlink:href="#SvgjsPath3928" x="150" y="270" stroke="rgba(252, 198, 5, 0.33)"></use><use xlink:href="#SvgjsPath3926" x="150" y="330" stroke="rgba(252, 198, 5, 0.33)"></use><use xlink:href="#SvgjsPath3929" x="150" y="390" stroke="rgba(252, 198, 5, 0.33)"></use><use xlink:href="#SvgjsPath3925" x="150" y="450" stroke="rgba(252, 198, 5, 0.33)"></use><use xlink:href="#SvgjsPath3926" x="150" y="510" stroke="rgba(252, 198, 5, 0.33)"></use><use xlink:href="#SvgjsPath3928" x="150" y="570" stroke="rgba(252, 198, 5, 0.33)"></use><use xlink:href="#SvgjsPath3925" x="150" y="630" stroke="rgba(252, 198, 5, 0.33)"></use><use xlink:href="#SvgjsPath3928" x="150" y="690" stroke="rgba(252, 198, 5, 0.33)"></use><use xlink:href="#SvgjsPath3928" x="210" y="30" stroke="rgba(252, 198, 5, 0.33)"></use><use xlink:href="#SvgjsPath3929" x="210" y="90" stroke="rgba(252, 198, 5, 0.33)"></use><use xlink:href="#SvgjsPath3927" x="210" y="150" stroke="rgba(252, 198, 5, 0.33)"></use><use xlink:href="#SvgjsPath3926" x="210" y="210" stroke="rgba(252, 198, 5, 0.33)"></use><use xlink:href="#SvgjsPath3930" x="210" y="270" stroke="rgba(252, 198, 5, 0.33)" stroke-width="3"></use><use xlink:href="#SvgjsPath3929" x="210" y="330" stroke="rgba(252, 198, 5, 0.33)"></use><use xlink:href="#SvgjsPath3928" x="210" y="390" stroke="rgba(252, 198, 5, 0.33)"></use><use xlink:href="#SvgjsPath3925" x="210" y="450" stroke="rgba(252, 198, 5, 0.33)"></use><use xlink:href="#SvgjsPath3929" x="210" y="510" stroke="rgba(252, 198, 5, 0.33)"></use><use xlink:href="#SvgjsPath3925" x="210" y="570" stroke="rgba(252, 198, 5, 0.33)"></use><use xlink:href="#SvgjsPath3926" x="210" y="630" stroke="rgba(252, 198, 5, 0.33)"></use><use xlink:href="#SvgjsPath3925" x="210" y="690" stroke="rgba(252, 198, 5, 0.33)"></use><use xlink:href="#SvgjsPath3928" x="270" y="30" stroke="rgba(252, 198, 5, 0.33)"></use><use xlink:href="#SvgjsPath3925" x="270" y="90" stroke="rgba(252, 198, 5, 0.33)"></use><use xlink:href="#SvgjsPath3926" x="270" y="150" stroke="rgba(252, 198, 5, 0.33)"></use><use xlink:href="#SvgjsPath3927" x="270" y="210" stroke="rgba(252, 198, 5, 0.33)"></use><use xlink:href="#SvgjsPath3927" x="270" y="270" stroke="rgba(252, 198, 5, 0.33)"></use><use xlink:href="#SvgjsPath3928" x="270" y="330" stroke="rgba(252, 198, 5, 0.33)"></use><use xlink:href="#SvgjsPath3930" x="270" y="390" stroke="rgba(252, 198, 5, 0.33)" stroke-width="3"></use><use xlink:href="#SvgjsPath3928" x="270" y="450" stroke="rgba(252, 198, 5, 0.33)"></use><use xlink:href="#SvgjsPath3925" x="270" y="510" stroke="rgba(252, 198, 5, 0.33)"></use><use xlink:href="#SvgjsPath3928" x="270" y="570" stroke="rgba(252, 198, 5, 0.33)"></use><use xlink:href="#SvgjsPath3925" x="270" y="630" stroke="rgba(252, 198, 5, 0.33)"></use><use xlink:href="#SvgjsPath3930" x="270" y="690" stroke="rgba(252, 198, 5, 0.33)" stroke-width="3"></use><use xlink:href="#SvgjsPath3925" x="330" y="30" stroke="rgba(252, 198, 5, 0.33)"></use><use xlink:href="#SvgjsPath3926" x="330" y="90" stroke="rgba(252, 198, 5, 0.33)"></use><use xlink:href="#SvgjsPath3927" x="330" y="150" stroke="rgba(252, 198, 5, 0.33)"></use><use xlink:href="#SvgjsPath3925" x="330" y="210" stroke="rgba(252, 198, 5, 0.33)"></use><use xlink:href="#SvgjsPath3925" x="330" y="270" stroke="rgba(252, 198, 5, 0.33)"></use><use xlink:href="#SvgjsPath3928" x="330" y="330" stroke="rgba(252, 198, 5, 0.33)"></use><use xlink:href="#SvgjsPath3925" x="330" y="390" stroke="rgba(252, 198, 5, 0.33)"></use><use xlink:href="#SvgjsPath3929" x="330" y="450" stroke="rgba(252, 198, 5, 0.33)"></use><use xlink:href="#SvgjsPath3929" x="330" y="510" stroke="rgba(252, 198, 5, 0.33)"></use><use xlink:href="#SvgjsPath3930" x="330" y="570" stroke="rgba(252, 198, 5, 0.33)" stroke-width="3"></use><use xlink:href="#SvgjsPath3925" x="330" y="630" stroke="rgba(252, 198, 5, 0.33)"></use><use xlink:href="#SvgjsPath3925" x="330" y="690" stroke="rgba(252, 198, 5, 0.33)"></use><use xlink:href="#SvgjsPath3925" x="390" y="30" stroke="rgba(252, 198, 5, 0.33)"></use><use xlink:href="#SvgjsPath3925" x="390" y="90" stroke="rgba(252, 198, 5, 0.33)"></use><use xlink:href="#SvgjsPath3925" x="390" y="150" stroke="rgba(252, 198, 5, 0.33)"></use><use xlink:href="#SvgjsPath3926" x="390" y="210" stroke="rgba(252, 198, 5, 0.33)"></use><use xlink:href="#SvgjsPath3928" x="390" y="270" stroke="rgba(252, 198, 5, 0.33)"></use><use xlink:href="#SvgjsPath3928" x="390" y="330" stroke="rgba(252, 198, 5, 0.33)"></use><use xlink:href="#SvgjsPath3926" x="390" y="390" stroke="rgba(252, 198, 5, 0.33)"></use><use xlink:href="#SvgjsPath3925" x="390" y="450" stroke="rgba(252, 198, 5, 0.33)"></use><use xlink:href="#SvgjsPath3928" x="390" y="510" stroke="rgba(252, 198, 5, 0.33)"></use><use xlink:href="#SvgjsPath3925" x="390" y="570" stroke="rgba(252, 198, 5, 0.33)"></use><use xlink:href="#SvgjsPath3928" x="390" y="630" stroke="rgba(252, 198, 5, 0.33)"></use><use xlink:href="#SvgjsPath3928" x="390" y="690" stroke="rgba(252, 198, 5, 0.33)"></use><use xlink:href="#SvgjsPath3928" x="450" y="30" stroke="rgba(252, 198, 5, 0.33)"></use><use xlink:href="#SvgjsPath3928" x="450" y="90" stroke="rgba(252, 198, 5, 0.33)"></use><use xlink:href="#SvgjsPath3927" x="450" y="150" stroke="rgba(252, 198, 5, 0.33)"></use><use xlink:href="#SvgjsPath3926" x="450" y="210" stroke="rgba(252, 198, 5, 0.33)"></use><use xlink:href="#SvgjsPath3928" x="450" y="270" stroke="rgba(252, 198, 5, 0.33)"></use><use xlink:href="#SvgjsPath3928" x="450" y="330" stroke="rgba(252, 198, 5, 0.33)"></use><use xlink:href="#SvgjsPath3929" x="450" y="390" stroke="rgba(252, 198, 5, 0.33)"></use><use xlink:href="#SvgjsPath3925" x="450" y="450" stroke="rgba(252, 198, 5, 0.33)"></use><use xlink:href="#SvgjsPath3925" x="450" y="510" stroke="rgba(252, 198, 5, 0.33)"></use><use xlink:href="#SvgjsPath3930" x="450" y="570" stroke="rgba(252, 198, 5, 0.33)" stroke-width="3"></use><use xlink:href="#SvgjsPath3925" x="450" y="630" stroke="rgba(252, 198, 5, 0.33)"></use><use xlink:href="#SvgjsPath3925" x="450" y="690" stroke="rgba(252, 198, 5, 0.33)"></use><use xlink:href="#SvgjsPath3925" x="510" y="30" stroke="rgba(252, 198, 5, 0.33)"></use><use xlink:href="#SvgjsPath3925" x="510" y="90" stroke="rgba(252, 198, 5, 0.33)"></use><use xlink:href="#SvgjsPath3925" x="510" y="150" stroke="rgba(252, 198, 5, 0.33)"></use><use xlink:href="#SvgjsPath3925" x="510" y="210" stroke="rgba(252, 198, 5, 0.33)"></use><use xlink:href="#SvgjsPath3928" x="510" y="270" stroke="rgba(252, 198, 5, 0.33)"></use><use xlink:href="#SvgjsPath3925" x="510" y="330" stroke="rgba(252, 198, 5, 0.33)"></use><use xlink:href="#SvgjsPath3930" x="510" y="390" stroke="rgba(252, 198, 5, 0.33)" stroke-width="3"></use><use xlink:href="#SvgjsPath3927" x="510" y="450" stroke="rgba(252, 198, 5, 0.33)"></use><use xlink:href="#SvgjsPath3925" x="510" y="510" stroke="rgba(252, 198, 5, 0.33)"></use><use xlink:href="#SvgjsPath3926" x="510" y="570" stroke="rgba(252, 198, 5, 0.33)"></use><use xlink:href="#SvgjsPath3925" x="510" y="630" stroke="rgba(252, 198, 5, 0.33)"></use><use xlink:href="#SvgjsPath3925" x="510" y="690" stroke="rgba(252, 198, 5, 0.33)"></use></g><defs><mask id="SvgjsMask3923"><rect width="525" height="670" fill="#ffffff"></rect></mask><linearGradient x1="50%" y1="0%" x2="50%" y2="100%" gradientUnits="userSpaceOnUse" id="SvgjsLinearGradient3924"><stop stop-color="rgba(8, 4, 18, 1)" offset="0"></stop><stop stop-color="rgba(88, 24, 179, 1)" offset="1"></stop></linearGradient><path d="M-1 0 a1 1 0 1 0 2 0 a1 1 0 1 0 -2 0z" id="SvgjsPath3926"></path><path d="M-3 0 a3 3 0 1 0 6 0 a3 3 0 1 0 -6 0z" id="SvgjsPath3929"></path><path d="M-5 0 a5 5 0 1 0 10 0 a5 5 0 1 0 -10 0z" id="SvgjsPath3928"></path><path d="M2 -2 L-2 2z" id="SvgjsPath3927"></path><path d="M6 -6 L-6 6z" id="SvgjsPath3925"></path><path d="M30 -30 L-30 30z" id="SvgjsPath3930"></path></defs></svg>