<svg xmlns="http://www.w3.org/2000/svg" version="1.1" xmlns:xlink="http://www.w3.org/1999/xlink" xmlns:svgjs="http://svgjs.com/svgjs" width="1125" height="2436" preserveAspectRatio="none" viewBox="0 0 1125 2436"><g mask="url(&quot;#SvgjsMask7738&quot;)" fill="none"><rect width="1125" height="2436" x="0" y="0" fill="url(#SvgjsLinearGradient7739)"></rect><use xlink:href="#SvgjsSymbol7746" x="0" y="0"></use><use xlink:href="#SvgjsSymbol7746" x="0" y="720"></use><use xlink:href="#SvgjsSymbol7746" x="0" y="1440"></use><use xlink:href="#SvgjsSymbol7746" x="0" y="2160"></use><use xlink:href="#SvgjsSymbol7746" x="720" y="0"></use><use xlink:href="#SvgjsSymbol7746" x="720" y="720"></use><use xlink:href="#SvgjsSymbol7746" x="720" y="1440"></use><use xlink:href="#SvgjsSymbol7746" x="720" y="2160"></use></g><defs><mask id="SvgjsMask7738"><rect width="1125" height="2436" fill="#ffffff"></rect></mask><linearGradient x1="50%" y1="100%" x2="50%" y2="0%" gradientUnits="userSpaceOnUse" id="SvgjsLinearGradient7739"><stop stop-color="rgba(139, 95, 191, 1)" offset="0"></stop><stop stop-color="rgba(214, 198, 225, 1)" offset="1"></stop></linearGradient><path d="M-1 0 a1 1 0 1 0 2 0 a1 1 0 1 0 -2 0z" id="SvgjsPath7744"></path><path d="M-3 0 a3 3 0 1 0 6 0 a3 3 0 1 0 -6 0z" id="SvgjsPath7740"></path><path d="M-5 0 a5 5 0 1 0 10 0 a5 5 0 1 0 -10 0z" id="SvgjsPath7742"></path><path d="M2 -2 L-2 2z" id="SvgjsPath7741"></path><path d="M6 -6 L-6 6z" id="SvgjsPath7743"></path><path d="M30 -30 L-30 30z" id="SvgjsPath7745"></path></defs><symbol id="SvgjsSymbol7746"><use xlink:href="#SvgjsPath7740" x="30" y="30" stroke="rgba(97, 57, 143, 0.45)"></use><use xlink:href="#SvgjsPath7741" x="30" y="90" stroke="rgba(97, 57, 143, 0.45)"></use><use xlink:href="#SvgjsPath7742" x="30" y="150" stroke="rgba(97, 57, 143, 0.45)"></use><use xlink:href="#SvgjsPath7743" x="30" y="210" stroke="rgba(97, 57, 143, 0.45)"></use><use xlink:href="#SvgjsPath7742" x="30" y="270" stroke="rgba(97, 57, 143, 0.45)"></use><use xlink:href="#SvgjsPath7744" x="30" y="330" stroke="rgba(97, 57, 143, 0.45)"></use><use xlink:href="#SvgjsPath7742" x="30" y="390" stroke="rgba(97, 57, 143, 0.45)"></use><use xlink:href="#SvgjsPath7745" x="30" y="450" stroke="rgba(97, 57, 143, 0.45)" stroke-width="3"></use><use xlink:href="#SvgjsPath7742" x="30" y="510" stroke="rgba(97, 57, 143, 0.45)"></use><use xlink:href="#SvgjsPath7742" x="30" y="570" stroke="rgba(97, 57, 143, 0.45)"></use><use xlink:href="#SvgjsPath7744" x="30" y="630" stroke="rgba(97, 57, 143, 0.45)"></use><use xlink:href="#SvgjsPath7743" x="30" y="690" stroke="rgba(97, 57, 143, 0.45)"></use><use xlink:href="#SvgjsPath7742" x="90" y="30" stroke="rgba(97, 57, 143, 0.45)"></use><use xlink:href="#SvgjsPath7742" x="90" y="90" stroke="rgba(97, 57, 143, 0.45)"></use><use xlink:href="#SvgjsPath7743" x="90" y="150" stroke="rgba(97, 57, 143, 0.45)"></use><use xlink:href="#SvgjsPath7742" x="90" y="210" stroke="rgba(97, 57, 143, 0.45)"></use><use xlink:href="#SvgjsPath7744" x="90" y="270" stroke="rgba(97, 57, 143, 0.45)"></use><use xlink:href="#SvgjsPath7743" x="90" y="330" stroke="rgba(97, 57, 143, 0.45)"></use><use xlink:href="#SvgjsPath7742" x="90" y="390" stroke="rgba(97, 57, 143, 0.45)"></use><use xlink:href="#SvgjsPath7742" x="90" y="450" stroke="rgba(97, 57, 143, 0.45)"></use><use xlink:href="#SvgjsPath7742" x="90" y="510" stroke="rgba(97, 57, 143, 0.45)"></use><use xlink:href="#SvgjsPath7742" x="90" y="570" stroke="rgba(97, 57, 143, 0.45)"></use><use xlink:href="#SvgjsPath7742" x="90" y="630" stroke="rgba(97, 57, 143, 0.45)"></use><use xlink:href="#SvgjsPath7742" x="90" y="690" stroke="rgba(97, 57, 143, 0.45)"></use><use xlink:href="#SvgjsPath7742" x="150" y="30" stroke="rgba(97, 57, 143, 0.45)"></use><use xlink:href="#SvgjsPath7742" x="150" y="90" stroke="rgba(97, 57, 143, 0.45)"></use><use xlink:href="#SvgjsPath7743" x="150" y="150" stroke="rgba(97, 57, 143, 0.45)"></use><use xlink:href="#SvgjsPath7743" x="150" y="210" stroke="rgba(97, 57, 143, 0.45)"></use><use xlink:href="#SvgjsPath7744" x="150" y="270" stroke="rgba(97, 57, 143, 0.45)"></use><use xlink:href="#SvgjsPath7745" x="150" y="330" stroke="rgba(97, 57, 143, 0.45)" stroke-width="3"></use><use xlink:href="#SvgjsPath7743" x="150" y="390" stroke="rgba(97, 57, 143, 0.45)"></use><use xlink:href="#SvgjsPath7744" x="150" y="450" stroke="rgba(97, 57, 143, 0.45)"></use><use xlink:href="#SvgjsPath7742" x="150" y="510" stroke="rgba(97, 57, 143, 0.45)"></use><use xlink:href="#SvgjsPath7742" x="150" y="570" stroke="rgba(97, 57, 143, 0.45)"></use><use xlink:href="#SvgjsPath7745" x="150" y="630" stroke="rgba(97, 57, 143, 0.45)" stroke-width="3"></use><use xlink:href="#SvgjsPath7742" x="150" y="690" stroke="rgba(97, 57, 143, 0.45)"></use><use xlink:href="#SvgjsPath7740" x="210" y="30" stroke="rgba(97, 57, 143, 0.45)"></use><use xlink:href="#SvgjsPath7743" x="210" y="90" stroke="rgba(97, 57, 143, 0.45)"></use><use xlink:href="#SvgjsPath7743" x="210" y="150" stroke="rgba(97, 57, 143, 0.45)"></use><use xlink:href="#SvgjsPath7742" x="210" y="210" stroke="rgba(97, 57, 143, 0.45)"></use><use xlink:href="#SvgjsPath7743" x="210" y="270" stroke="rgba(97, 57, 143, 0.45)"></use><use xlink:href="#SvgjsPath7741" x="210" y="330" stroke="rgba(97, 57, 143, 0.45)"></use><use xlink:href="#SvgjsPath7741" x="210" y="390" stroke="rgba(97, 57, 143, 0.45)"></use><use xlink:href="#SvgjsPath7742" x="210" y="450" stroke="rgba(97, 57, 143, 0.45)"></use><use xlink:href="#SvgjsPath7743" x="210" y="510" stroke="rgba(97, 57, 143, 0.45)"></use><use xlink:href="#SvgjsPath7741" x="210" y="570" stroke="rgba(97, 57, 143, 0.45)"></use><use xlink:href="#SvgjsPath7743" x="210" y="630" stroke="rgba(97, 57, 143, 0.45)"></use><use xlink:href="#SvgjsPath7743" x="210" y="690" stroke="rgba(97, 57, 143, 0.45)"></use><use xlink:href="#SvgjsPath7744" x="270" y="30" stroke="rgba(97, 57, 143, 0.45)"></use><use xlink:href="#SvgjsPath7742" x="270" y="90" stroke="rgba(97, 57, 143, 0.45)"></use><use xlink:href="#SvgjsPath7742" x="270" y="150" stroke="rgba(97, 57, 143, 0.45)"></use><use xlink:href="#SvgjsPath7745" x="270" y="210" stroke="rgba(97, 57, 143, 0.45)" stroke-width="3"></use><use xlink:href="#SvgjsPath7743" x="270" y="270" stroke="rgba(97, 57, 143, 0.45)"></use><use xlink:href="#SvgjsPath7743" x="270" y="330" stroke="rgba(97, 57, 143, 0.45)"></use><use xlink:href="#SvgjsPath7745" x="270" y="390" stroke="rgba(97, 57, 143, 0.45)" stroke-width="3"></use><use xlink:href="#SvgjsPath7745" x="270" y="450" stroke="rgba(97, 57, 143, 0.45)" stroke-width="3"></use><use xlink:href="#SvgjsPath7743" x="270" y="510" stroke="rgba(97, 57, 143, 0.45)"></use><use xlink:href="#SvgjsPath7741" x="270" y="570" stroke="rgba(97, 57, 143, 0.45)"></use><use xlink:href="#SvgjsPath7743" x="270" y="630" stroke="rgba(97, 57, 143, 0.45)"></use><use xlink:href="#SvgjsPath7740" x="270" y="690" stroke="rgba(97, 57, 143, 0.45)"></use><use xlink:href="#SvgjsPath7743" x="330" y="30" stroke="rgba(97, 57, 143, 0.45)"></use><use xlink:href="#SvgjsPath7744" x="330" y="90" stroke="rgba(97, 57, 143, 0.45)"></use><use xlink:href="#SvgjsPath7743" x="330" y="150" stroke="rgba(97, 57, 143, 0.45)"></use><use xlink:href="#SvgjsPath7744" x="330" y="210" stroke="rgba(97, 57, 143, 0.45)"></use><use xlink:href="#SvgjsPath7743" x="330" y="270" stroke="rgba(97, 57, 143, 0.45)"></use><use xlink:href="#SvgjsPath7742" x="330" y="330" stroke="rgba(97, 57, 143, 0.45)"></use><use xlink:href="#SvgjsPath7740" x="330" y="390" stroke="rgba(97, 57, 143, 0.45)"></use><use xlink:href="#SvgjsPath7740" x="330" y="450" stroke="rgba(97, 57, 143, 0.45)"></use><use xlink:href="#SvgjsPath7744" x="330" y="510" stroke="rgba(97, 57, 143, 0.45)"></use><use xlink:href="#SvgjsPath7741" x="330" y="570" stroke="rgba(97, 57, 143, 0.45)"></use><use xlink:href="#SvgjsPath7742" x="330" y="630" stroke="rgba(97, 57, 143, 0.45)"></use><use xlink:href="#SvgjsPath7745" x="330" y="690" stroke="rgba(97, 57, 143, 0.45)" stroke-width="3"></use><use xlink:href="#SvgjsPath7743" x="390" y="30" stroke="rgba(97, 57, 143, 0.45)"></use><use xlink:href="#SvgjsPath7743" x="390" y="90" stroke="rgba(97, 57, 143, 0.45)"></use><use xlink:href="#SvgjsPath7742" x="390" y="150" stroke="rgba(97, 57, 143, 0.45)"></use><use xlink:href="#SvgjsPath7743" x="390" y="210" stroke="rgba(97, 57, 143, 0.45)"></use><use xlink:href="#SvgjsPath7743" x="390" y="270" stroke="rgba(97, 57, 143, 0.45)"></use><use xlink:href="#SvgjsPath7741" x="390" y="330" stroke="rgba(97, 57, 143, 0.45)"></use><use xlink:href="#SvgjsPath7743" x="390" y="390" stroke="rgba(97, 57, 143, 0.45)"></use><use xlink:href="#SvgjsPath7740" x="390" y="450" stroke="rgba(97, 57, 143, 0.45)"></use><use xlink:href="#SvgjsPath7744" x="390" y="510" stroke="rgba(97, 57, 143, 0.45)"></use><use xlink:href="#SvgjsPath7744" x="390" y="570" stroke="rgba(97, 57, 143, 0.45)"></use><use xlink:href="#SvgjsPath7743" x="390" y="630" stroke="rgba(97, 57, 143, 0.45)"></use><use xlink:href="#SvgjsPath7743" x="390" y="690" stroke="rgba(97, 57, 143, 0.45)"></use><use xlink:href="#SvgjsPath7742" x="450" y="30" stroke="rgba(97, 57, 143, 0.45)"></use><use xlink:href="#SvgjsPath7742" x="450" y="90" stroke="rgba(97, 57, 143, 0.45)"></use><use xlink:href="#SvgjsPath7742" x="450" y="150" stroke="rgba(97, 57, 143, 0.45)"></use><use xlink:href="#SvgjsPath7744" x="450" y="210" stroke="rgba(97, 57, 143, 0.45)"></use><use xlink:href="#SvgjsPath7744" x="450" y="270" stroke="rgba(97, 57, 143, 0.45)"></use><use xlink:href="#SvgjsPath7740" x="450" y="330" stroke="rgba(97, 57, 143, 0.45)"></use><use xlink:href="#SvgjsPath7740" x="450" y="390" stroke="rgba(97, 57, 143, 0.45)"></use><use xlink:href="#SvgjsPath7744" x="450" y="450" stroke="rgba(97, 57, 143, 0.45)"></use><use xlink:href="#SvgjsPath7742" x="450" y="510" stroke="rgba(97, 57, 143, 0.45)"></use><use xlink:href="#SvgjsPath7740" x="450" y="570" stroke="rgba(97, 57, 143, 0.45)"></use><use xlink:href="#SvgjsPath7742" x="450" y="630" stroke="rgba(97, 57, 143, 0.45)"></use><use xlink:href="#SvgjsPath7742" x="450" y="690" stroke="rgba(97, 57, 143, 0.45)"></use><use xlink:href="#SvgjsPath7740" x="510" y="30" stroke="rgba(97, 57, 143, 0.45)"></use><use xlink:href="#SvgjsPath7744" x="510" y="90" stroke="rgba(97, 57, 143, 0.45)"></use><use xlink:href="#SvgjsPath7742" x="510" y="150" stroke="rgba(97, 57, 143, 0.45)"></use><use xlink:href="#SvgjsPath7742" x="510" y="210" stroke="rgba(97, 57, 143, 0.45)"></use><use xlink:href="#SvgjsPath7744" x="510" y="270" stroke="rgba(97, 57, 143, 0.45)"></use><use xlink:href="#SvgjsPath7740" x="510" y="330" stroke="rgba(97, 57, 143, 0.45)"></use><use xlink:href="#SvgjsPath7743" x="510" y="390" stroke="rgba(97, 57, 143, 0.45)"></use><use xlink:href="#SvgjsPath7743" x="510" y="450" stroke="rgba(97, 57, 143, 0.45)"></use><use xlink:href="#SvgjsPath7743" x="510" y="510" stroke="rgba(97, 57, 143, 0.45)"></use><use xlink:href="#SvgjsPath7742" x="510" y="570" stroke="rgba(97, 57, 143, 0.45)"></use><use xlink:href="#SvgjsPath7742" x="510" y="630" stroke="rgba(97, 57, 143, 0.45)"></use><use xlink:href="#SvgjsPath7741" x="510" y="690" stroke="rgba(97, 57, 143, 0.45)"></use><use xlink:href="#SvgjsPath7744" x="570" y="30" stroke="rgba(97, 57, 143, 0.45)"></use><use xlink:href="#SvgjsPath7743" x="570" y="90" stroke="rgba(97, 57, 143, 0.45)"></use><use xlink:href="#SvgjsPath7742" x="570" y="150" stroke="rgba(97, 57, 143, 0.45)"></use><use xlink:href="#SvgjsPath7743" x="570" y="210" stroke="rgba(97, 57, 143, 0.45)"></use><use xlink:href="#SvgjsPath7743" x="570" y="270" stroke="rgba(97, 57, 143, 0.45)"></use><use xlink:href="#SvgjsPath7740" x="570" y="330" stroke="rgba(97, 57, 143, 0.45)"></use><use xlink:href="#SvgjsPath7742" x="570" y="390" stroke="rgba(97, 57, 143, 0.45)"></use><use xlink:href="#SvgjsPath7742" x="570" y="450" stroke="rgba(97, 57, 143, 0.45)"></use><use xlink:href="#SvgjsPath7742" x="570" y="510" stroke="rgba(97, 57, 143, 0.45)"></use><use xlink:href="#SvgjsPath7742" x="570" y="570" stroke="rgba(97, 57, 143, 0.45)"></use><use xlink:href="#SvgjsPath7743" x="570" y="630" stroke="rgba(97, 57, 143, 0.45)"></use><use xlink:href="#SvgjsPath7742" x="570" y="690" stroke="rgba(97, 57, 143, 0.45)"></use><use xlink:href="#SvgjsPath7742" x="630" y="30" stroke="rgba(97, 57, 143, 0.45)"></use><use xlink:href="#SvgjsPath7741" x="630" y="90" stroke="rgba(97, 57, 143, 0.45)"></use><use xlink:href="#SvgjsPath7742" x="630" y="150" stroke="rgba(97, 57, 143, 0.45)"></use><use xlink:href="#SvgjsPath7744" x="630" y="210" stroke="rgba(97, 57, 143, 0.45)"></use><use xlink:href="#SvgjsPath7742" x="630" y="270" stroke="rgba(97, 57, 143, 0.45)"></use><use xlink:href="#SvgjsPath7741" x="630" y="330" stroke="rgba(97, 57, 143, 0.45)"></use><use xlink:href="#SvgjsPath7743" x="630" y="390" stroke="rgba(97, 57, 143, 0.45)"></use><use xlink:href="#SvgjsPath7743" x="630" y="450" stroke="rgba(97, 57, 143, 0.45)"></use><use xlink:href="#SvgjsPath7743" x="630" y="510" stroke="rgba(97, 57, 143, 0.45)"></use><use xlink:href="#SvgjsPath7745" x="630" y="570" stroke="rgba(97, 57, 143, 0.45)" stroke-width="3"></use><use xlink:href="#SvgjsPath7742" x="630" y="630" stroke="rgba(97, 57, 143, 0.45)"></use><use xlink:href="#SvgjsPath7743" x="630" y="690" stroke="rgba(97, 57, 143, 0.45)"></use><use xlink:href="#SvgjsPath7741" x="690" y="30" stroke="rgba(97, 57, 143, 0.45)"></use><use xlink:href="#SvgjsPath7743" x="690" y="90" stroke="rgba(97, 57, 143, 0.45)"></use><use xlink:href="#SvgjsPath7743" x="690" y="150" stroke="rgba(97, 57, 143, 0.45)"></use><use xlink:href="#SvgjsPath7742" x="690" y="210" stroke="rgba(97, 57, 143, 0.45)"></use><use xlink:href="#SvgjsPath7741" x="690" y="270" stroke="rgba(97, 57, 143, 0.45)"></use><use xlink:href="#SvgjsPath7743" x="690" y="330" stroke="rgba(97, 57, 143, 0.45)"></use><use xlink:href="#SvgjsPath7742" x="690" y="390" stroke="rgba(97, 57, 143, 0.45)"></use><use xlink:href="#SvgjsPath7741" x="690" y="450" stroke="rgba(97, 57, 143, 0.45)"></use><use xlink:href="#SvgjsPath7743" x="690" y="510" stroke="rgba(97, 57, 143, 0.45)"></use><use xlink:href="#SvgjsPath7743" x="690" y="570" stroke="rgba(97, 57, 143, 0.45)"></use><use xlink:href="#SvgjsPath7741" x="690" y="630" stroke="rgba(97, 57, 143, 0.45)"></use><use xlink:href="#SvgjsPath7741" x="690" y="690" stroke="rgba(97, 57, 143, 0.45)"></use></symbol></svg>